<svg width="25" height="24" viewBox="0 0 25 24" fill="none" xmlns="http://www.w3.org/2000/svg">
<path d="M18 6.5H18.01M7.5 2H17.5C20.2614 2 22.5 4.23858 22.5 7V17C22.5 19.7614 20.2614 22 17.5 22H7.5C4.73858 22 2.5 19.7614 2.5 17V7C2.5 4.23858 4.73858 2 7.5 2ZM16.5 11.37C16.6234 12.2022 16.4813 13.0522 16.0938 13.799C15.7063 14.5458 15.0931 15.1514 14.3416 15.5297C13.5901 15.9079 12.7384 16.0396 11.9078 15.9059C11.0771 15.7723 10.3098 15.3801 9.71484 14.7852C9.11992 14.1902 8.72773 13.4229 8.59407 12.5922C8.4604 11.7616 8.59207 10.9099 8.97033 10.1584C9.34859 9.40685 9.95419 8.79374 10.701 8.40624C11.4478 8.01874 12.2978 7.87659 13.13 8C13.9789 8.12588 14.7649 8.52146 15.3717 9.12831C15.9785 9.73515 16.3741 10.5211 16.5 11.37Z" stroke="black" stroke-width="2" stroke-linecap="round" stroke-linejoin="round"/>
</svg>
