<svg width="18" height="18" viewBox="0 0 18 18" fill="none" xmlns="http://www.w3.org/2000/svg">
<path d="M3.75 3.74996C3.74992 3.48603 3.81948 3.22675 3.95166 2.9983C4.08384 2.76985 4.27396 2.58032 4.50281 2.44885C4.73167 2.31738 4.99116 2.24862 5.25509 2.24952C5.51902 2.25042 5.77804 2.32094 6.006 2.45396L15.0037 7.70246C15.2308 7.83422 15.4193 8.02327 15.5505 8.25071C15.6816 8.47815 15.7507 8.73603 15.7509 8.99856C15.7512 9.26109 15.6825 9.51908 15.5518 9.74676C15.421 9.97443 15.2328 10.1638 15.006 10.296L6.006 15.546C5.77804 15.679 5.51902 15.7495 5.25509 15.7504C4.99116 15.7513 4.73167 15.6825 4.50281 15.5511C4.27396 15.4196 4.08384 15.2301 3.95166 15.0016C3.81948 14.7732 3.74992 14.5139 3.75 14.25V3.74996Z" stroke="black" stroke-width="2" stroke-linecap="round" stroke-linejoin="round"/>
</svg>
